<?xml version="1.0" encoding="UTF-8"?><svg id="a" xmlns="http://www.w3.org/2000/svg" viewBox="0 0 321.061 115.052"><defs><style>.b,.c{fill:#231f20;}.c{font-family:Silom, Silom;font-size:50.233px;}</style></defs><g><path class="b" d="M29.457,115.052c-16.269,0-29.457-13.189-29.457-29.457s13.189-29.457,29.457-29.457"/><rect class="b" x="43.721" y="5.136" width="20.141" height="109.917"/><rect class="b" x="29.457" y="56.138" width="14.264" height="58.915"/></g><g><path class="b" d="M92.738,81.6c0-16.269,7.967-25.462,22.491-25.462s22.491,9.193,22.491,25.462"/><rect class="b" x="79.016" y="56.138" width="20.141" height="58.915"/></g><g><circle class="b" cx="182.331" cy="85.494" r="29.457"/><rect class="b" x="200.367" y="55.998" width="20.141" height="58.915"/></g><g><path class="b" d="M282.849,114.954h-17.748c-16.258,0-29.438-13.18-29.438-29.438v-29.438s4.464-.273,17.442,0c0,0-.876,33.845,4.391,37.454,2.485,5.693,25.354,5.181,25.354,5.181v16.24Z"/><path class="b" d="M273.875,114.954h17.748c16.258,0,29.438-13.18,29.438-29.438v-29.438s-4.464-.273-17.442,0c0,0,.876,33.845-4.391,37.454-2.485,5.693-25.354,5.181-25.354,5.181v16.24Z"/><rect class="b" x="269.771" y="55.957" width="17.581" height="58.956"/></g><text class="c" transform="translate(79.016 43.954) scale(.781 1)"><tspan x="0" y="0">JAVASCRIPT</tspan></text></svg>